<?xml version="1.0" standalone="no"?>
<!DOCTYPE svg PUBLIC "-//W3C//DTD SVG 20010904//EN"
 "http://www.w3.org/TR/2001/REC-SVG-20010904/DTD/svg10.dtd">
<svg version="1.0" xmlns="http://www.w3.org/2000/svg"
 width="1280.000000pt" height="1126.000000pt" viewBox="0 0 1280.000000 1126.000000"
 preserveAspectRatio="xMidYMid meet">
<metadata>
Created by potrace 1.15, written by Peter Selinger 2001-2017
</metadata>
<g transform="translate(0.000000,1126.000000) scale(0.100000,-0.100000)"
fill="#9c27b0" stroke="none">
<path d="M5755 10214 c-465 -24 -849 -66 -1207 -134 -1149 -217 -2039 -645
-2648 -1276 -595 -615 -812 -1304 -634 -2009 153 -603 594 -1089 1314 -1448
290 -145 541 -237 880 -322 518 -129 1036 -187 1690 -187 430 0 739 19 1243
78 120 14 221 23 224 20 7 -7 -140 -456 -190 -581 l-32 -80 -70 3 c-125 6
-376 32 -545 58 -91 13 -199 30 -241 36 l-75 12 -56 -32 c-31 -18 -60 -38 -66
-45 -5 -6 -22 -51 -38 -100 l-28 -87 19 -36 c11 -20 35 -54 55 -75 34 -37 40
-39 195 -73 193 -42 376 -79 505 -101 158 -26 152 -24 144 -48 -40 -132 -271
-672 -384 -897 -226 -451 -485 -821 -717 -1024 -358 -313 -773 -450 -1259
-416 -270 20 -478 83 -653 198 -258 171 -369 396 -321 653 57 306 431 503
1043 550 196 14 205 17 255 85 42 56 42 57 42 145 l0 89 -41 45 c-23 25 -57
50 -78 56 -53 17 -526 23 -699 9 -807 -65 -1336 -377 -1432 -845 -7 -33 -12
-105 -12 -160 3 -357 228 -672 672 -937 585 -350 1423 -422 2204 -192 803 238
1491 825 2038 1739 121 201 298 551 390 772 17 41 36 76 42 78 6 2 99 8 206
14 821 49 1608 267 2205 611 455 262 868 626 1142 1008 342 477 524 1043 538
1672 4 207 -4 327 -36 510 -72 420 -240 787 -516 1130 -243 303 -638 613
-1072 843 l-115 61 67 60 c66 60 67 62 81 135 9 46 11 83 6 97 -5 13 -40 45
-79 72 -57 40 -84 52 -156 67 l-86 18 -143 -70 c-78 -39 -173 -89 -210 -111
l-67 -41 -157 45 c-625 180 -1254 287 -2037 344 -139 10 -966 21 -1100 14z
m805 -509 c701 -13 1345 -106 1880 -272 169 -52 163 -39 69 -146 -185 -209
-397 -487 -533 -700 -38 -59 -73 -107 -77 -107 -5 0 -57 7 -116 15 -539 74
-1108 84 -1628 29 -679 -72 -1318 -234 -1940 -493 -155 -65 -161 -68 -193
-116 -59 -87 -63 -103 -47 -176 34 -152 29 -146 161 -174 l79 -17 165 67 c613
249 1259 402 1935 460 227 19 873 14 1051 -9 149 -19 282 -41 289 -48 3 -3
-16 -52 -41 -109 -64 -143 -184 -449 -259 -659 -113 -317 -369 -1104 -526
-1615 -23 -77 -46 -144 -50 -148 -15 -19 -547 -91 -869 -119 -206 -17 -977
-18 -1155 0 -495 49 -847 125 -1190 259 -426 167 -789 425 -1007 717 -124 166
-224 389 -270 599 -31 141 -33 528 -4 682 94 504 428 959 974 1324 718 480
1602 730 2687 760 138 4 273 6 300 4 28 -1 169 -5 315 -8z m2837 -687 c512
-342 878 -836 1018 -1374 59 -225 69 -325 70 -644 0 -194 -5 -327 -13 -390
-87 -615 -329 -1097 -757 -1508 -534 -514 -1248 -802 -2126 -858 l-107 -7 118
339 c65 187 138 397 163 469 l45 130 138 38 c926 252 1535 691 1718 1239 87
259 87 524 0 788 -119 362 -456 714 -891 934 l-71 35 35 92 c95 253 229 503
401 747 l65 92 46 -27 c25 -14 92 -57 148 -95z m-759 -1354 c209 -136 337
-327 373 -554 16 -102 6 -284 -21 -385 -86 -320 -371 -642 -738 -833 -100 -52
-282 -124 -282 -111 0 19 240 841 479 1644 92 306 88 295 97 295 3 0 45 -25
92 -56z"/>
</g>
</svg>
